# xmcd CD database file
#
# Track frame offsets:
#	150
#	28717
#	53147
#	77440
#	100325
#	127225
#	164895
#	177187
#
# Disc length: 2733 seconds
#
# Revision: 0
# Processed by: cddbd v1.5.2PL0 Copyright (c) Steve Scherf et al.
# Submitted via: CDex 1.70beta2
#
DISCID=690aab08
DTITLE=Acama - Toscana Magic
DYEAR=2000
DGENRE=New Age
TTITLE0=Acama - Ceramica
TTITLE1=Acama - Silvercord
TTITLE2=Acama - Clarisse
TTITLE3=Acama - Magic Garden
TTITLE4=Acama - Still Peace
TTITLE5=Acama - Sunrise
TTITLE6=Acama - Look Up
TTITLE7=Acama - Toscana
EXTD=YEAR: 2000
EXTT0=
EXTT1=
EXTT2=
EXTT3=
EXTT4=
EXTT5=
EXTT6=
EXTT7=
PLAYORDER=
